<svg width="230" height="230" viewBox="0 0 230 230" fill="none" xmlns="http://www.w3.org/2000/svg">
<g clip-path="url(#clip0_668_6)">
<path fill-rule="evenodd" clip-rule="evenodd" d="M133.365 207H79.1487C41.9254 202.347 4.14706 186.179 4.14706 121.476C4.14706 102.437 11.0228 86.8611 21.9177 74.7469C20.1988 70.4209 14.1772 52.5328 23.6402 28.5912C23.6402 28.5912 38.26 23.9749 71.2247 46.4757C85.338 42.6618 99.8928 40.7217 114.514 40.7054C129.133 40.7054 144.037 42.7267 157.799 46.4757C190.767 23.9749 205.387 28.5912 205.387 28.5912C214.85 52.5328 208.825 70.4209 207.106 74.7469C218.288 86.8611 224.88 102.437 224.88 121.476C224.88 186.299 186.962 202.135 149.411 207H133.365ZM243.909 15C254.234 26.7003 263.013 39.8133 269.921 54.0179V15H243.909ZM81.6111 122.568H64.7151C62.7951 122.568 61.2591 122.856 60.1071 123.432C59.3391 123.816 58.7951 124.52 58.4751 125.544C58.2191 126.568 58.0911 127.944 58.0911 129.672C58.0911 131.336 58.2191 132.68 58.4751 133.704C58.7311 134.664 59.2751 135.4 60.1071 135.912C60.9391 136.424 62.3471 136.68 64.3311 136.68H71.9151V147.144C69.0991 148.296 65.9311 148.872 62.4111 148.872C57.5471 148.872 53.1951 146.952 49.3551 143.112C45.5151 139.208 43.5951 134.504 43.5951 129C43.5951 123.432 45.4831 118.952 49.2591 115.56C53.0351 112.104 57.3551 110.376 62.2191 110.376C65.9311 110.376 69.1311 111.272 71.8191 113.064C74.5071 114.792 76.4591 115.656 77.6751 115.656C79.7231 115.656 81.9951 113.96 84.4911 110.568C85.9631 108.52 86.6991 106.728 86.6991 105.192C86.6991 103.592 85.8351 102.152 84.1071 100.872C77.3871 95.88 70.2511 93.384 62.6991 93.384C52.9711 93.384 44.5231 96.808 37.3551 103.656C30.1871 110.44 26.6031 118.92 26.6031 129.096C26.6031 139.272 30.1231 147.976 37.1631 155.208C44.2031 162.376 52.4911 165.96 62.0271 165.96C72.7791 165.96 80.8431 163.176 86.2191 157.608C88.0111 155.752 88.9071 153.8 88.9071 151.752V130.632C88.9071 128.264 88.5871 126.472 87.9471 125.256C87.1791 123.592 85.0671 122.696 81.6111 122.568ZM96.6704 119.592C96.6064 120.296 96.5744 121.384 96.5744 122.856V156.552C96.5744 158.088 96.6064 159.208 96.6704 159.912C96.7984 160.616 97.0864 161.448 97.5344 162.408C98.4304 164.136 100.894 165 104.926 165C109.022 165 111.486 164.168 112.318 162.504C112.83 161.544 113.118 160.712 113.182 160.008C113.31 159.24 113.374 158.12 113.374 156.648V123.048C113.374 121.832 113.342 120.904 113.278 120.264C113.214 118.408 112.638 117.032 111.55 116.136C110.27 115.048 108.094 114.504 105.022 114.504C100.926 114.504 98.4304 115.336 97.5344 117C97.0864 117.96 96.7984 118.824 96.6704 119.592ZM109.822 107.016C111.038 106.632 111.87 105.992 112.318 105.096C112.83 104.136 113.118 103.304 113.182 102.6C113.31 101.832 113.374 100.712 113.374 99.24C113.374 97.768 113.31 96.68 113.182 95.976C113.118 95.208 112.83 94.344 112.318 93.384C111.486 91.656 109.054 90.792 105.022 90.792C100.926 90.792 98.4304 91.656 97.5344 93.384C97.0864 94.28 96.7984 95.112 96.6704 95.88C96.6064 96.584 96.5744 97.672 96.5744 99.144C96.5744 100.616 96.6064 101.736 96.6704 102.504C96.7984 103.208 97.0864 104.04 97.5344 105C98.0464 105.96 98.9104 106.632 100.126 107.016C101.342 107.4 102.942 107.592 104.926 107.592C106.974 107.592 108.606 107.4 109.822 107.016ZM119.603 156.84C119.603 158.504 120.211 159.72 121.427 160.488C127.123 164.072 133.043 165.864 139.187 165.864C145.395 165.864 150.547 164.872 154.643 162.888C156.883 161.736 158.611 160.008 159.827 157.704C161.107 155.336 161.747 152.488 161.747 149.16C161.747 145.832 161.107 143.08 159.827 140.904C158.611 138.664 157.075 137.096 155.219 136.2C151.251 134.216 147.155 133 142.931 132.552C138.579 131.976 136.403 130.728 136.403 128.808C136.403 127.4 138.291 126.696 142.067 126.696C144.499 126.696 146.739 127.176 148.787 128.136C150.899 129.096 152.339 129.576 153.107 129.576C154.579 129.576 156.019 128.456 157.427 126.216C158.835 123.976 159.539 122.088 159.539 120.552C159.539 119.016 158.419 117.736 156.179 116.712C151.379 114.536 146.707 113.448 142.163 113.448C128.275 113.448 121.331 118.504 121.331 128.616C121.331 132.008 121.939 134.952 123.155 137.448C124.371 139.88 125.907 141.672 127.763 142.824C131.731 145.256 135.731 146.76 139.763 147.336C144.051 147.912 146.195 148.808 146.195 150.024C146.195 151.56 144.243 152.328 140.339 152.328C138.163 152.328 135.731 151.56 133.043 150.024C130.355 148.424 128.211 147.624 126.611 147.624C125.075 147.624 123.955 148.168 123.251 149.256C120.819 152.648 119.603 155.176 119.603 156.84ZM189.648 131.016L195.888 131.4C197.36 131.4 198.448 131.368 199.152 131.304C199.92 131.176 200.784 130.888 201.744 130.44C203.472 129.544 204.336 127.08 204.336 123.048C204.336 118.952 203.504 116.488 201.84 115.656C200.88 115.144 200.016 114.856 199.248 114.792C198.544 114.664 197.456 114.6 195.984 114.6C194.576 114.6 192.464 114.728 189.648 114.984V105.576C189.648 103.336 189.488 101.704 189.168 100.68C188.336 98.312 185.744 97.128 181.392 97.128C177.296 97.128 174.832 97.928 174 99.528C173.488 100.36 173.168 101.128 173.04 101.832C172.976 102.536 172.944 103.624 172.944 105.096V114.984L169.776 114.6C168.24 114.6 166.96 115.016 165.936 115.848C165.36 116.36 164.912 117.224 164.592 118.44C164.272 119.592 164.112 121.48 164.112 124.104C164.112 126.728 164.56 128.584 165.456 129.672C166.416 130.76 167.6 131.304 169.008 131.304C170.416 131.304 171.728 131.208 172.944 131.016V145.224C172.944 152.392 174.672 157.48 178.128 160.488C181.584 163.496 186.64 165 193.296 165C194.704 165 195.76 164.968 196.464 164.904C197.232 164.776 198.096 164.488 199.056 164.04C200.848 163.144 201.744 160.68 201.744 156.648C201.744 153.192 201.008 151.048 199.536 150.216C198.64 149.704 197.776 149.416 196.944 149.352C196.176 149.224 195.024 149.16 193.488 149.16C192.016 149.16 190.992 148.776 190.416 148.008C189.904 147.24 189.648 145.992 189.648 144.264V131.016Z" fill="black"/>
</g>
<defs>
<clipPath id="clip0_668_6">
<rect width="230" height="230" fill="white"/>
</clipPath>
</defs>
</svg>
